# xmcd CD database file
#
# Track frame offsets:
#	150
#	22475
#	45662
#	67000
#	85375
#	111350
#	137900
#	167525
#	189950
#	215025
#	233800
#	260887
#	288475
#
# Disc length: 4167 seconds
#
# Revision: 0
# Processed by: cddbd v1.5.1PL0 Copyright (c) Steve Scherf et al.
# Submitted via: Feurio! 1.67 - http://www.feurio.com
#
DISCID=ce10450d
DTITLE=Various Artist - Cover Me The Ultimate Danceversions
DYEAR=1900
DGENRE=Blues
TTITLE0=Techno-Color feat. Twiggy - Unchained Melody
TTITLE1=Lousie Thomas - It's Too Late
TTITLE2=Little Caesar - The Whole Of The Moon
TTITLE3=System D - The Clapping Song
TTITLE4=Ultramatix - Sacrifice
TTITLE5=Cheek 2 Cheek - You're No Good
TTITLE6=Rhythm Edit feat. Mellow C - Satisfaction Guaranteed
TTITLE7=Ultramatix - Show Me Heaven
TTITLE8=Carey Duncan and Man Man With No Name - Love and Affection
TTITLE9=Candy Flip - Strawberry Fields Forever
TTITLE10=Sharon Dee Clarke - Guilty
TTITLE11=Chill Rob G - The Power
TTITLE12=Karen Jones - Come Together
EXTD=
EXTT0=
EXTT1=
EXTT2=
EXTT3=
EXTT4=
EXTT5=
EXTT6=
EXTT7=
EXTT8=
EXTT9=
EXTT10=
EXTT11=
EXTT12=
PLAYORDER=
